<svg xmlns="http://www.w3.org/2000/svg" width="85" height="85" viewBox="0 0 85 85">
  <metadata><?xpacket begin="﻿" id="W5M0MpCehiHzreSzNTczkc9d"?>
<x:xmpmeta xmlns:x="adobe:ns:meta/" x:xmptk="Adobe XMP Core 5.6-c140 79.160451, 2017/05/06-01:08:21        ">
   <rdf:RDF xmlns:rdf="http://www.w3.org/1999/02/22-rdf-syntax-ns#">
      <rdf:Description rdf:about=""/>
   </rdf:RDF>
</x:xmpmeta>
                                                                                                    
                                                                                                    
                                                                                                    
                                                                                                    
                                                                                                    
                                                                                                    
                                                                                                    
                                                                                                    
                                                                                                    
                                                                                                    
                                                                                                    
                                                                                                    
                                                                                                    
                                                                                                    
                                                                                                    
                                                                                                    
                                                                                                    
                                                                                                    
                                                                                                    
                                                                                                    
                           
<?xpacket end="w"?></metadata>
<defs>
    <style>
      .cls-1 {
        fill: #e6e7e8;
        fill-rule: evenodd;
      }
    </style>
  </defs>
  <path id="stripes_copy_8" data-name="stripes copy 8" class="cls-1" d="M-451.052,974.858L516.753,7.474l5.053,5.051L-446,979.908Zm9.1,9.091,967.8-967.385,5.054,5.051L-436.9,989Zm9.1,9.091L534.944,25.656,540,30.707l-967.8,967.383Zm9.1,9.09,967.8-967.383,5.054,5.051-967.8,967.382Zm9.094,9.09,967.8-967.382,5.052,5.051-967.8,967.381Zm9.1,9.09,967.8-967.382,5.053,5.051-967.8,967.38Zm9.094,9.09L571.324,62.021l5.053,5.05-967.8,967.389Zm9.095,9.1L580.419,71.112l5.053,5.05-967.8,967.388Zm9.1,9.09L589.514,80.2l5.053,5.051L-373.239,1052.64Zm9.095,9.09L598.61,89.293l5.052,5.052-967.8,967.385Zm9.1,9.09L607.7,98.385l5.053,5.051-967.8,967.384Zm9.1,9.09L616.8,107.476l5.053,5.051-967.8,967.383Zm9.095,9.09L625.894,116.567l5.053,5.051L-336.857,1089Zm9.1,9.09L634.99,125.659l5.052,5.051-967.8,967.38Zm9.1,9.09,967.8-967.381,5.051,5.052-967.8,967.379Zm9.094,9.1,967.8-967.389,5.053,5.051-967.8,967.388Zm9.1,9.09,967.8-967.387,5.053,5.051-967.8,967.386Zm9.094,9.09L671.371,162.024l5.052,5.049-967.8,967.387Zm9.094,9.09L680.465,171.115l5.053,5.05L-282.288,1143.55Zm9.1,9.09,967.8-967.384,5.052,5.051-967.8,967.383Zm9.1,9.09L698.655,189.3l5.053,5.049L-264.1,1161.73Zm9.1,9.09,967.8-967.382,5.054,5.051L-255,1170.82Zm9.093,9.09L716.845,207.479l5.053,5.051-967.8,967.38Zm9.095,9.1L725.94,216.57l5.054,5.051-967.8,967.389ZM-698.011,784.733L269.794-182.652l5.052,5.051-967.8,967.385Zm9.094,9.091L278.888-173.56l5.054,5.05-967.8,967.384Zm9.1,9.091,967.8-967.385,5.053,5.052-967.8,967.383Zm9.094,9.091,967.8-967.385,5.054,5.052-967.8,967.384Zm9.1,9.091,967.8-967.384,5.053,5.051-967.8,967.384Zm9.1,9.091L315.27-137.2l5.052,5.051-967.8,967.384Zm9.093,9.092L324.364-128.1l5.053,5.051-967.8,967.385Zm9.1,9.091L333.459-119.013l5.053,5.049-967.8,967.385Zm9.1,9.091L342.555-109.921l5.053,5.05L-620.2,862.513Zm9.1,9.091L351.65-100.831l5.052,5.05L-611.1,871.6Zm9.1,9.091L360.745-91.74l5.051,5.05L-602.007,880.7Zm9.1,9.091L369.84-82.648l5.053,5.05-967.8,967.385Zm9.1,9.091,967.8-967.385,5.052,5.051-967.8,967.385Zm9.094,9.092,967.8-967.385,5.053,5.051-967.8,967.385Zm9.1,9.091,967.8-967.384,5.053,5.051-967.8,967.384Zm9.094,9.091,967.8-967.384,5.054,5.051-967.8,967.384Zm9.095,9.092L415.316-37.193l5.052,5.051-967.8,967.385Zm9.094,9.091L424.409-28.1l5.055,5.051L-538.342,944.333Zm9.1,9.091L433.506-19.01l5.053,5.051-967.8,967.385Zm9.1,9.091L442.6-9.919l5.053,5.051-967.8,967.384Zm9.095,9.091L451.7-.828l5.053,5.051-967.8,967.383Zm9.1,9.09L460.791,8.263l5.053,5.05L-501.96,980.7Zm9.1,9.093L469.887,17.355l5.052,5.05-967.8,967.385Zm9.1,9.09L478.98,26.446l5.053,5.05-967.8,967.385Z"/>
</svg>
